<?xml version="1.0" encoding="utf-8"?>
<!-- Generator: Adobe Illustrator 23.0.3, SVG Export Plug-In . SVG Version: 6.00 Build 0)  -->
<svg version="1.1" id="Line" xmlns="http://www.w3.org/2000/svg" xmlns:xlink="http://www.w3.org/1999/xlink" x="0px" y="0px"
	 viewBox="0 0 512 512" style="enable-background:new 0 0 512 512;" xml:space="preserve">
<style type="text/css">
	.st0{opacity:0.5;fill:#C7C7C7;}
	.st1{fill:url(#SVGID_1_);}
	.st2{fill:url(#SVGID_2_);}
	.st3{fill:url(#SVGID_3_);}
</style>
<path class="st0" d="M414.1,152.2c-16.3,4.1-24.2-1.4-38.6-11.2c-22.2-15.2-53.3-33.7-77-21.6c-7,3.7-12.6,9.5-15.9,16.7
	c-21.2,0.9-34.5,7.2-39.8,18.7c-8.2,17.9,7.4,40.5,13.3,48.1V240c0,39.8,32.2,72,72,72s72-32.2,72-72v-48v-0.1
	c10.4-7.4,18.5-17.4,23.5-29.1c1.6-4.1-0.5-8.7-4.7-10.3C417.3,151.9,415.6,151.8,414.1,152.2L414.1,152.2z M328,296
	c-30.9,0-56-25.1-56-56v-37.9c3.4-6.4,8.9-11.4,15.6-14.1c9.5-2.5,51.6,29.2,96.4,12.4V240C384,270.9,358.9,296,328,296z"/>
<path class="st0" d="M470.9,372.9l-66.6-20l-22.6-22.6c-2.7-2.7-6.9-3.1-10.1-1l-43.6,29l-43.6-29c-3.2-2.1-7.4-1.7-10.1,1
	l-22.6,22.6l-66.6,20c-10.2,3-17.2,12.4-17.1,23V480c0,13.2,10.8,24,24,24h272c13.2,0,24-10.8,24-24v-84.1
	C488,385.3,481.1,375.9,470.9,372.9L470.9,372.9z M302.4,395.1L267.3,360l13.8-13.7l36.2,24.1L302.4,395.1z M338.8,370.4l36.2-24.1
	l13.8,13.7l-35.1,35.1L338.8,370.4z M432,448h-40c-4.4,0-8-3.6-8-8s3.6-8,8-8h40c4.4,0,8,3.6,8,8S436.4,448,432,448z"/>
<g>
	<linearGradient id="SVGID_1_" gradientUnits="userSpaceOnUse" x1="23.9999" y1="208" x2="415.9995" y2="208">
		<stop  offset="0" style="stop-color:#42E695"/>
		<stop  offset="1" style="stop-color:#3BB2B8"/>
	</linearGradient>
	<path class="st1" d="M404.4,121.2c-15.4-15.5-40.5-15.6-56-0.2c-0.1,0.1-0.1,0.1-0.2,0.2l-53.9,54.2V32c0-13.2-10.7-24-23.9-24
		H47.8C34.6,8.1,24,18.8,24,32v352c0,13.2,10.6,23.9,23.8,24h222.6c13.2-0.1,23.9-10.8,23.8-24v-95.4l110.1-110.8
		C419.9,162.1,419.9,136.9,404.4,121.2L404.4,121.2z M241.4,319.2l-33.7-33.9l134.9-135.8l33.7,33.9L241.4,319.2z M199.9,300.1
		l26.8,26.9l-40.2,13.5L199.9,300.1z M278.4,384c0,4.4-3.6,8-8,8H47.8c-4.4,0-8-3.6-8-8V32c0-4.4,3.6-8,8-8h222.6c4.4,0,8,3.6,8,8
		v159.4l-87.6,88.2c-0.7,1-1.4,2-1.9,3.1L168.6,344h-73c-4.4,0-8,3.6-8,8s3.6,8,8,8h74.5c1.9,1.2,4.2,1.5,6.3,0.7l67.5-22.6
		c1.1-0.6,2.1-1.2,3.1-1.9l31.4-31.6L278.4,384z M393.1,166.5l-5.6,5.7l-33.7-33.9l5.6-5.7c9.3-9.3,24.3-9.4,33.6-0.1
		c0,0,0.1,0.1,0.1,0.1C402.4,141.9,402.4,157.1,393.1,166.5z"/>
	<linearGradient id="SVGID_2_" gradientUnits="userSpaceOnUse" x1="119.3919" y1="88.0008" x2="199.392" y2="88.0008">
		<stop  offset="0" style="stop-color:#42E695"/>
		<stop  offset="1" style="stop-color:#3BB2B8"/>
	</linearGradient>
	<path class="st2" d="M159.1,128c22.1,0.1,40.1-17.7,40.2-39.8c0.1-22.1-17.7-40.1-39.8-40.2s-40.1,17.7-40.2,39.8
		c0,0.1,0,0.2,0,0.2C119.3,110,137.1,127.9,159.1,128z M159.1,64c13.3-0.1,24.1,10.6,24.2,23.8c0.1,13.3-10.6,24.1-23.8,24.2
		c-13.3,0.1-24.1-10.6-24.2-23.8c0-0.1,0-0.1,0-0.2C135.3,74.8,145.9,64.1,159.1,64L159.1,64z"/>
	<linearGradient id="SVGID_3_" gradientUnits="userSpaceOnUse" x1="87.392" y1="176" x2="230.888" y2="176">
		<stop  offset="0" style="stop-color:#42E695"/>
		<stop  offset="1" style="stop-color:#3BB2B8"/>
	</linearGradient>
	<path class="st3" d="M119.4,208h79.5c17.7,0,32-14.3,32-32s-14.3-32-32-32h-79.5c-17.7,0-32,14.3-32,32S101.7,208,119.4,208z
		 M119.4,160h79.5c8.8,0,16,7.2,16,16s-7.2,16-16,16h-79.5c-8.8,0-16-7.2-16-16S110.6,160,119.4,160z"/>
</g>
</svg>
