<?xml version="1.0" encoding="utf-8"?>
<!-- Generator: Adobe Illustrator 23.0.3, SVG Export Plug-In . SVG Version: 6.00 Build 0)  -->
<svg version="1.1" id="Line" xmlns="http://www.w3.org/2000/svg" xmlns:xlink="http://www.w3.org/1999/xlink" x="0px" y="0px"
	 viewBox="0 0 512 512" style="enable-background:new 0 0 512 512;" xml:space="preserve">
<style type="text/css">
	.st0{opacity:0.5;}
	.st1{fill:#C7C7C7;}
	.st2{fill:url(#SVGID_1_);}
	.st3{fill:url(#SVGID_2_);}
	.st4{opacity:0.5;fill:#C7C7C7;}
	.st5{fill:url(#SVGID_3_);}
	.st6{fill:url(#SVGID_4_);}
	.st7{fill:url(#SVGID_5_);}
	.st8{fill:url(#SVGID_6_);}
</style>
<g class="st0">
	<path class="st1" d="M464,167.8H360v-24c0-13.3-10.7-24-24-24h-96c-13.3,0-24,10.7-24,24v24H112c-13.3,0-24,10.7-24,24v116.3
		c0,10.5,6.8,19.7,16.8,23c41.5,13.1,84.2,21.8,127.5,26c-0.2-1.7-0.3-3.5-0.3-5.3c0-30.9,25.1-56,56-56c30.9,0,56,25.1,56,56
		c0,1.8-0.1,3.5-0.3,5.3c43.3-4.2,86-12.9,127.4-26c10-3.2,16.8-12.5,16.8-23V191.8C488,178.6,477.3,167.8,464,167.8L464,167.8z
		 M232,143.8c0-4.4,3.6-8,8-8h96c4.4,0,8,3.6,8,8v24H232V143.8z"/>
	<circle class="st1" cx="288" cy="351.8" r="40"/>
	<path class="st1" d="M364.4,445c-1.2-3.1-4.2-5.2-7.5-5.2H219.1c-3.3,0-6.3,2.1-7.5,5.2l-22.1,58.8h197.1
		C386.3,503,362.9,441.1,364.4,445z"/>
	<path class="st1" d="M288,407.8c-22.5,0-42.8-13.5-51.6-34.2c-44.9-4-89.3-12.7-132.4-26.1v132.3c0,13.3,10.7,24,24,24h44.4
		c0.3-0.8,25.9-68.7,24.3-64.4c3.5-9.3,12.5-15.5,22.5-15.6h137.8c10,0,18.9,6.2,22.5,15.6l24.4,64.4H448c13.3,0,24-10.7,24-24
		V347.5c-43.1,13.3-87.5,22.1-132.4,26.1C330.8,394.3,310.5,407.8,288,407.8L288,407.8z"/>
</g>
<linearGradient id="SVGID_1_" gradientUnits="userSpaceOnUse" x1="24" y1="324" x2="296" y2="324">
	<stop  offset="0" style="stop-color:#42E695"/>
	<stop  offset="1" style="stop-color:#3BB2B8"/>
</linearGradient>
<path class="st2" d="M208,240h-96c-48.6,0.1-87.9,39.4-88,88v56c0,13.3,10.7,24,24,24h224c13.3,0,24-10.7,24-24v-56
	C295.9,279.4,256.6,240.1,208,240z M160,318.8l15.2,40.4L160,384.4l-15.2-25.2L160,318.8z M160,283.5L137.1,256h45.8L160,283.5z
	 M40,384v-56c0-39.7,32.3-72,72-72h4.3l34.6,41.5l-22.4,59.6c-0.9,2.3-0.6,4.8,0.6,6.9l16.8,27.9H48C43.6,392,40,388.4,40,384
	L40,384z M280,384c0,4.4-3.6,8-8,8h-97.9l16.7-27.9c1.3-2.1,1.5-4.6,0.6-6.9l-22.4-59.6l34.6-41.5h4.3c39.7,0,72,32.3,72,72V384z"/>
<linearGradient id="SVGID_2_" gradientUnits="userSpaceOnUse" x1="64" y1="115.9894" x2="256.5331" y2="115.9894">
	<stop  offset="0" style="stop-color:#42E695"/>
	<stop  offset="1" style="stop-color:#3BB2B8"/>
</linearGradient>
<path class="st3" d="M88,108.9V152c0,39.8,32.2,72,72,72s72-32.2,72-72v-45.5c22.9-31.3,29.9-56.8,20.5-75.6
	C245.3,16.6,228.7,8,208,8c-16.7-0.4-33.2,4.3-47.3,13.3C151.5,13.5,140,8.8,128,8c-23.9,0-64,0-64,48C64,89.5,79.5,103.6,88,108.9z
	 M216,152c0,30.9-25.1,56-56,56s-56-25.1-56-56v-40.3c17.7-1.1,34.6-8,48-19.7c15.6,13.8,43.3,18.3,64,19.7V152z M128,24
	c14.9,0,33,17.8,41.6,28.8c2.7,3.5,7.7,4.3,11.2,1.6c3.5-2.7,4.3-7.7,1.6-11.2c-2.9-3.7-6-7.3-9.3-10.7c10.7-5.8,22.7-8.7,34.9-8.5
	c14.5,0,25.7,5.3,30.2,14.1C244.4,50.6,238,71,220,95.9c-18-0.8-51.5-5.3-61.4-20.3c-1.5-2.2-3.9-3.6-6.6-3.6
	c-2.7,0-5.2,1.3-6.7,3.5c-0.8,0.5-13.5,19.8-47.9,20.4C93.7,93.9,80,84.7,80,56C80,26.2,99,24,128,24z"/>
<path class="st4" d="M-23,443h-8v-16c0-13.3-10.7-24-24-24h-5.5c-3-24-16.8-98.5-71.3-122.4c12.9-4.9,37-7.6,77.1,9.6
	c20.8,10.1,38.3,3.8,44.7-7.6c7.1-12.7,3.4-33.6-28.6-54.3c-26.9-16.5-48.6-40.2-62.9-68.3c-1.2-3-4.2-4.9-7.4-4.9h-25v-32
	c0-4.4-3.6-8-8-8c-0.8,0-1.5,0.1-2.3,0.3c-4.2,1.3-104,31.8-129.2,107.1c-27.4,81.9,47,137.7,56.5,180.5H-231c-13.3,0-24,10.7-24,24
	v16h-8c-13.3,0-24,10.7-24,24v24c0,13.3,10.7,24,24,24h240c13.3,0,24-10.7,24-24v-24C1,453.7-9.7,443-23,443L-23,443z M-239,427
	c0-4.4,3.6-8,8-8h176c4.4,0,8,3.6,8,8v16h-192V427z"/>
<g>
	<linearGradient id="SVGID_3_" gradientUnits="userSpaceOnUse" x1="-495" y1="219" x2="-95" y2="219">
		<stop  offset="0" style="stop-color:#42E695"/>
		<stop  offset="1" style="stop-color:#3BB2B8"/>
	</linearGradient>
	<path class="st5" d="M-119,19h-352c-13.3,0-24,10.7-24,24v32c0,13.3,10.7,24,24,24h8v232c0,13.3,10.7,24,24,24h136v48h-8
		c-4.4,0-8,3.6-8,8s3.6,8,8,8h32c4.4,0,8-3.6,8-8s-3.6-8-8-8h-8v-48h136c13.3,0,24-10.7,24-24V99h8c13.3,0,24-10.7,24-24V43
		C-95,29.7-105.7,19-119,19z M-143,331c0,4.4-3.6,8-8,8h-288c-4.4,0-8-3.6-8-8V99h304V331z M-111,75c0,4.4-3.6,8-8,8h-352
		c-4.4,0-8-3.6-8-8V43c0-4.4,3.6-8,8-8h352c4.4,0,8,3.6,8,8V75z"/>
	<linearGradient id="SVGID_4_" gradientUnits="userSpaceOnUse" x1="-423" y1="283" x2="-359" y2="283">
		<stop  offset="0" style="stop-color:#42E695"/>
		<stop  offset="1" style="stop-color:#3BB2B8"/>
	</linearGradient>
	<path class="st6" d="M-391,315c17.7,0,32-14.3,32-32c0-17.7-14.3-32-32-32s-32,14.3-32,32C-423,300.7-408.7,315-391,315z M-391,267
		c8.8,0,16,7.2,16,16s-7.2,16-16,16s-16-7.2-16-16S-399.8,267-391,267z"/>
	<linearGradient id="SVGID_5_" gradientUnits="userSpaceOnUse" x1="-335" y1="206.9968" x2="-167.0982" y2="206.9968">
		<stop  offset="0" style="stop-color:#42E695"/>
		<stop  offset="1" style="stop-color:#3BB2B8"/>
	</linearGradient>
	<path class="st7" d="M-327,291h112c13.3,0,24-10.7,24-24V150.3l10.3,10.3c3.2,3.1,8.2,3,11.3-0.2c3-3.1,3-8,0-11.1l-24-24
		c-3.1-3.1-8.2-3.1-11.3,0c0,0,0,0,0,0l-24,24c-3.1,3.2-3,8.2,0.2,11.3c3.1,3,8,3,11.1,0l10.4-10.3V267c0,4.4-3.6,8-8,8h-112
		c-4.4,0-8,3.6-8,8S-331.4,291-327,291z"/>
	<linearGradient id="SVGID_6_" gradientUnits="userSpaceOnUse" x1="-422.9983" y1="151.0483" x2="-367.0983" y2="151.0483">
		<stop  offset="0" style="stop-color:#42E695"/>
		<stop  offset="1" style="stop-color:#3BB2B8"/>
	</linearGradient>
	<path class="st8" d="M-420.7,176.7c3.1,3.1,8.2,3.1,11.3,0l14.3-14.3l14.3,14.3c3.2,3.1,8.2,3,11.3-0.2c3-3.1,3-8,0-11.1
		l-14.3-14.3l14.3-14.3c3.1-3.2,3-8.2-0.2-11.3c-3.1-3-8-3-11.1,0l-14.3,14.3l-14.3-14.3c-3.2-3.1-8.2-3-11.3,0.2c-3,3.1-3,8,0,11.1
		l14.3,14.3l-14.3,14.3C-423.8,168.5-423.8,173.5-420.7,176.7L-420.7,176.7z"/>
</g>
</svg>
