<?xml version="1.0" encoding="utf-8"?>
<!-- Generator: Adobe Illustrator 23.0.3, SVG Export Plug-In . SVG Version: 6.00 Build 0)  -->
<svg version="1.1" id="Line" xmlns="http://www.w3.org/2000/svg" xmlns:xlink="http://www.w3.org/1999/xlink" x="0px" y="0px"
	 viewBox="0 0 512 512" style="enable-background:new 0 0 512 512;" xml:space="preserve">
<style type="text/css">
	.st0{opacity:0.5;}
	.st1{fill:#C7C7C7;}
	.st2{fill:url(#SVGID_1_);}
	.st3{fill:url(#SVGID_2_);}
	.st4{fill:url(#SVGID_3_);}
	.st5{fill:url(#SVGID_4_);}
</style>
<g class="st0">
	<path class="st1" d="M354.7,341.5c-1-0.3-1.8-0.7-2.7-1v40.2c8.2-2.6,14.2-9.6,15.7-18C369.5,353.3,363.9,344.1,354.7,341.5z"/>
	<path class="st1" d="M327.4,300.3c-1.2,4.5,0.1,9.2,3.4,12.4c1.6,1.3,3.4,2.4,5.2,3.4v-27.6C331.5,290.9,328.3,295.3,327.4,300.3
		L327.4,300.3z"/>
	<path class="st1" d="M257,184h174.1c18.3-16.6,32.1-37.5,40.2-60.9c0.9-2.1,8.4-20.5-2.8-29.8c-7.7-6.4-23-9.3-72.8,22.7
		C385,97.7,365.1,86.9,344,88c-21.1-1.1-41,9.7-51.6,28c-49.8-32-65.2-29.1-72.8-22.7c-11.1,9.2-3.7,27.7-3,29.2
		C224.6,146.1,238.5,167.2,257,184z"/>
	<path class="st1" d="M428.9,200H259.1c-57.5,52.4-89.3,96.8-69,192.5c11.9,55.4,60.7,95.2,117.4,95.5h72.9
		c56.7-0.3,105.6-40.1,117.4-95.5C518.1,296.8,486.4,252.4,428.9,200L428.9,200z M383.4,365.3c-2.6,16.2-15.2,29-31.4,31.8V408
		c0,4.4-3.6,8-8,8s-8-3.6-8-8v-10.4c-8.9-0.6-17.4-3.7-24.6-9c-3.7-2.4-4.7-7.4-2.3-11.1c2.4-3.7,7.4-4.7,11.1-2.3l0,0
		c4.6,3.4,10.1,5.6,15.8,6.3V334c-5.3-2.3-10.4-5.3-15-8.8c-8.1-6.9-11.7-17.7-9.3-28c2-11.9,10.6-21.6,22-25.2
		c0.8-0.2,1.5-0.4,2.3-0.6V264c0-4.4,3.6-8,8-8s8,3.6,8,8v6.4c7.9,0.9,15.3,4.1,21.4,9.2c3.3,3,3.5,8,0.5,11.3s-8,3.5-11.3,0.5l0,0
		c-3.1-2.4-6.7-4.1-10.6-4.8v36.8c2.7,1,5.4,2,8.1,3C376.7,331.5,386.7,348.3,383.4,365.3z"/>
</g>
<linearGradient id="SVGID_1_" gradientUnits="userSpaceOnUse" x1="72" y1="224" x2="344" y2="224">
	<stop  offset="0" style="stop-color:#42E695"/>
	<stop  offset="1" style="stop-color:#3BB2B8"/>
</linearGradient>
<path class="st2" d="M208,88c-75.1,0-136,60.9-136,136s60.9,136,136,136s136-60.9,136-136C343.9,148.9,283.1,88.1,208,88z M208,344
	c-66.3,0-120-53.7-120-120s53.7-120,120-120s120,53.7,120,120C327.9,290.2,274.2,343.9,208,344z"/>
<linearGradient id="SVGID_2_" gradientUnits="userSpaceOnUse" x1="167.5378" y1="223.976" x2="253.6384" y2="223.976">
	<stop  offset="0" style="stop-color:#42E695"/>
	<stop  offset="1" style="stop-color:#3BB2B8"/>
</linearGradient>
<path class="st3" d="M226.6,213.5c-3.6-1.3-7.3-2.6-10.9-4v-45c5.5,0.6,10.8,2.8,15.2,6.2c3.3,3,8.3,2.8,11.3-0.5s2.8-8.3-0.5-11.3
	c-7.4-6.1-16.5-9.8-26-10.6v-9.7c0-4.4-3.6-8-8-8s-8,3.6-8,8v11c-14.3,3.2-25.2,14.7-27.6,29.1c-2.6,11.5,1.3,23.5,10.3,31.2
	c5.4,4,11.2,7.4,17.3,10.1v57.7c-7.2-0.7-14-3.3-19.7-7.6c-3.7-2.4-8.7-1.4-11.1,2.3c-2.4,3.7-1.4,8.7,2.3,11.1
	c8.3,6.1,18.2,9.6,28.5,10.2v15.5c0,4.4,3.6,8,8,8s8-3.6,8-8v-15.8c19-2.5,34.2-17.2,37.3-36.1C256.6,238.1,245.2,219.2,226.6,213.5
	L226.6,213.5z M192.2,197.4c-4.3-4-6-10-4.5-15.7c1.2-6.8,5.7-12.5,12-15.3v35.8C197,200.8,194.5,199.2,192.2,197.4L192.2,197.4z
	 M237.1,254.7c-1.8,11.3-10.4,20.3-21.5,22.7v-50.8c1.8,0.7,3.6,1.3,5.6,2C232.5,231.8,239.5,243.1,237.1,254.7L237.1,254.7z"/>
<linearGradient id="SVGID_3_" gradientUnits="userSpaceOnUse" x1="7.9876" y1="223.9928" x2="87.9018" y2="223.9928">
	<stop  offset="0" style="stop-color:#42E695"/>
	<stop  offset="1" style="stop-color:#3BB2B8"/>
</linearGradient>
<path class="st4" d="M74.3,69.6c3.2,3.1,8.2,3,11.3-0.2c3-3.1,3-8,0-11.1l-32-32c-3.1-3.1-8.2-3.1-11.3,0c0,0,0,0,0,0l-32,32
	c-3.1,3.1-3.1,8.2,0,11.3c3.1,3.1,8.2,3.1,11.3,0L40,51.3V416c0,4.4,3.6,8,8,8s8-3.6,8-8V51.3L74.3,69.6z"/>
<linearGradient id="SVGID_4_" gradientUnits="userSpaceOnUse" x1="328.0822" y1="223.9928" x2="407.9019" y2="223.9928">
	<stop  offset="0" style="stop-color:#42E695"/>
	<stop  offset="1" style="stop-color:#3BB2B8"/>
</linearGradient>
<path class="st5" d="M405.7,58.3l-32-32c-3.1-3.1-8.2-3.1-11.3,0c0,0,0,0,0,0l-32,32c-3.1,3.2-3,8.2,0.2,11.3c3.1,3,8,3,11.1,0
	L360,51.3V416c0,4.4,3.6,8,8,8s8-3.6,8-8V51.3l18.3,18.3c3.2,3.1,8.2,3,11.3-0.2C408.7,66.4,408.7,61.4,405.7,58.3L405.7,58.3z"/>
</svg>
