<svg xmlns="http://www.w3.org/2000/svg" xmlns:xlink="http://www.w3.org/1999/xlink" viewBox="0 0 905.73 181.32"><defs><style>.cls-1{fill:url(#Degradado_sin_nombre_2);}.cls-2{fill:#fff;}</style><linearGradient id="Degradado_sin_nombre_2" x1="78.35" y1="138.97" x2="78.35" y2="41.97" gradientTransform="translate(-209.28 -304.29) scale(3.49)" gradientUnits="userSpaceOnUse"><stop offset="0" stop-color="#42e695"/><stop offset="1" stop-color="#3bb2b8"/></linearGradient></defs><title>logo</title><g id="Capa_2" data-name="Capa 2"><g id="Capa_1-2" data-name="Capa 1"><g id="logo-logo"><path class="cls-1" d="M80.38,123.37V102.81H15v63.56H31.78v-43h48.6ZM114,87.86V15H15v18.7H95.33V87.86ZM129,33.65v69.16H95.33v35.52H46.73v43H0V87.86H80.38V48.6H0V0H129V33.65Z"/></g><g id="text-logo-path"><path class="cls-2" d="M176.6,88.4h0V16.13a3.3,3.3,0,0,1,.2-1.57,2.56,2.56,0,0,1,.59-.79c.2-.2.59-.2,1.18-.2h25.8c4.33,0,8.47.2,12.41.39a55.14,55.14,0,0,1,10.63,1.58,36,36,0,0,1,8.86,3.15,24.22,24.22,0,0,1,6.7,5.12,24,24,0,0,1,4.13,7.68,35.2,35.2,0,0,1,1.38,10.83h0a35.5,35.5,0,0,1-1.57,11,21.89,21.89,0,0,1-4.53,7.48,19.94,19.94,0,0,1-6.9,4.53,40.59,40.59,0,0,1-9,2.37,86.32,86.32,0,0,1-10.44,1c-3.74.2-7.49.2-11.42.2H183.1V88.6a11.55,11.55,0,0,1-.59,3.74,2.31,2.31,0,0,1-2.36,1.77h0a2.74,2.74,0,0,1-2.76-1.57A10.32,10.32,0,0,1,176.6,88.4Zm6.3-70.1V64.38h21.47c6.5,0,12.21-.2,16.93-.59a32.48,32.48,0,0,0,11.82-3A15.09,15.09,0,0,0,240,54.14c1.58-3,2.17-6.89,2.17-12h0c0-4.93-.79-9.06-2.36-12.21a16.47,16.47,0,0,0-6.9-7.29,32.37,32.37,0,0,0-11.81-3.55,138.16,138.16,0,0,0-16.94-1H182.9Zm79.37,72.86h0V18.1a9.11,9.11,0,0,1,.59-3.35c.39-1,1.38-1.38,2.75-1.38h0c1.19,0,2,.4,2.17,1.58a8.75,8.75,0,0,1,.39,3.15h0V89h62a2.44,2.44,0,0,1,2.16.79,2,2,0,0,1,.79,1.58h0a1.78,1.78,0,0,1-.79,1.57,3.54,3.54,0,0,1-2.16.79h-67a1.52,1.52,0,0,1-1-.39c-.2-.2-.2-.4-.4-.79C262.27,92.34,262.27,91.75,262.27,91.16Zm75.22.2h0a2.44,2.44,0,0,1,.2-1.18,10,10,0,0,0,.59-1.38h0l39.78-71.68c.79-1.38,1.38-2.37,1.77-3a2.09,2.09,0,0,1,2-.79h0a2.41,2.41,0,0,1,1.77.79,10.46,10.46,0,0,1,2,3h0L425.32,89a5.42,5.42,0,0,1,.79,2.76h0a2.28,2.28,0,0,1-.79,2,2.5,2.5,0,0,1-1.77.79h0a2.83,2.83,0,0,1-2-.79,7.16,7.16,0,0,1-2-2.56h0L407.4,68.91H356L343.6,91.36a6.79,6.79,0,0,1-1.78,2.16,4.07,4.07,0,0,1-2,.79h0a1.94,1.94,0,0,1-1.78-.79A3.17,3.17,0,0,1,337.49,91.36ZM382,21.84,358.37,65h47.06Zm31.31-5.71h0a1.93,1.93,0,0,1,.59-1.57,3.87,3.87,0,0,1,1.18-.79,4.82,4.82,0,0,1,1.77-.2h87.64c.59,0,1.18.2,1.57.2a3.75,3.75,0,0,1,1.18.79,3.63,3.63,0,0,1,.4,1.57h0c0,1-.4,1.58-1,1.77a8.58,8.58,0,0,1-2.56.4H463.72V90.57a5.64,5.64,0,0,1-.39,1.77,3,3,0,0,1-.79,1.18,3.63,3.63,0,0,1-1.57.4h0a2.62,2.62,0,0,1-2.56-1.58,11.28,11.28,0,0,1-.59-3.74h0V18.3H417.45a11.46,11.46,0,0,1-2.76-.4A1.56,1.56,0,0,1,413.31,16.13ZM512,91.36h0a2.92,2.92,0,0,1,.39-1.38,4.1,4.1,0,0,1,1.19-.79,4.8,4.8,0,0,1,1.77-.2h27.77V18.1H515.32a5.36,5.36,0,0,1-1.77-.2,3.14,3.14,0,0,1-1.19-.59,1.67,1.67,0,0,1-.39-1.38h0a3.11,3.11,0,0,1,.39-1.57,4.1,4.1,0,0,1,1.19-.79,5.36,5.36,0,0,1,1.77-.2h61.44a3.82,3.82,0,0,1,1.58.2,4.2,4.2,0,0,1,1.18.79,1.67,1.67,0,0,1,.39,1.38h0a3.78,3.78,0,0,1-.39,1.57,1.18,1.18,0,0,1-1.18.59c-.6,0-1,.2-1.58.2H549V89h27.77a3.82,3.82,0,0,1,1.58.2,4.2,4.2,0,0,1,1.18.79,1.67,1.67,0,0,1,.39,1.38h0a3.78,3.78,0,0,1-.39,1.57,1.18,1.18,0,0,1-1.18.59c-.6,0-1,.2-1.58.2H515.32a5.36,5.36,0,0,1-1.77-.2,1.82,1.82,0,0,1-1.19-.78A2.36,2.36,0,0,1,512,91.36Zm82.71-2.56h0V17.31a4.24,4.24,0,0,1,1-2.75,2.74,2.74,0,0,1,2.17-1.19h0a3.69,3.69,0,0,1,2.17.79,6.82,6.82,0,0,1,2.36,2.36h0l44.7,67.16,44.71-67.16a6.38,6.38,0,0,1,2.16-2.36,6,6,0,0,1,2.17-.79h0a2.47,2.47,0,0,1,2.16,1.19,4.69,4.69,0,0,1,1,2.75h0V88.8a17.3,17.3,0,0,1-.4,3.54,2.46,2.46,0,0,1-2.56,1.58h0a2.17,2.17,0,0,1-2.36-1.58,10.35,10.35,0,0,1-.59-3.54h0v-64L650.61,87.62c-1.18,1.57-2.37,2.36-3.55,2.36h0a4.2,4.2,0,0,1-3.54-2.36h0L600.78,24.8v64a9.37,9.37,0,0,1-.59,3.54,2.37,2.37,0,0,1-2.36,1.58h0c-1.38,0-2.36-.4-2.56-1.58A9.57,9.57,0,0,1,594.68,88.8Zm127.81,2.56h0V15.15a8.8,8.8,0,0,1,.19-1,1,1,0,0,1,.79-.39,3.8,3.8,0,0,1,1.58-.2h67.74a5.36,5.36,0,0,1,1.77.2,1.75,1.75,0,0,1,1.18.79,3,3,0,0,1,.4,1.57h0a2.81,2.81,0,0,1-.4,1.38,1.19,1.19,0,0,1-1.18.59,4.8,4.8,0,0,1-1.77.2h-64.2V49.81h62a11.48,11.48,0,0,1,2.76.39A1.72,1.72,0,0,1,794.56,52h0a2.55,2.55,0,0,1-1,2.17,4.32,4.32,0,0,1-2.37.39H728.59V88.8h64.59A5.72,5.72,0,0,1,795,89a1.84,1.84,0,0,1,1.18.79,3,3,0,0,1,.39,1.38h0a3.16,3.16,0,0,1-.39,1.58,1.94,1.94,0,0,1-1,.78,3.75,3.75,0,0,1-1.57.2h-70.5c-.2,0-.4-.2-.59-.39s-.2-.4-.2-.79C722.49,92.34,722.49,92,722.49,91.36Zm91.76.59h0A4.75,4.75,0,0,1,816,88.6h0l36.63-34.07L816.81,18.89a4.16,4.16,0,0,1-1.37-2.76h0a3.12,3.12,0,0,1,.59-1.77,2.39,2.39,0,0,1,1.57-.79h0a4.1,4.1,0,0,1,3,1.38h0L856.4,50.79,892.24,15a4.08,4.08,0,0,1,3-1.38h0a1.81,1.81,0,0,1,1.58.79,2.41,2.41,0,0,1,.59,1.77h0c0,.39-.2.79-.2,1.38a6.41,6.41,0,0,1-1,1.38h0L860.34,54.53,897,88.6a10.15,10.15,0,0,1,1.38,1.77,6,6,0,0,1,.4,1.58h0a2,2,0,0,1-2,2h0a5.1,5.1,0,0,1-3.35-1.77h0L856.79,57.88,820.16,92.15c-.79.59-1.38,1.18-1.77,1.37a4.55,4.55,0,0,1-1.58.4h0a2.23,2.23,0,0,1-1.57-.59C814.45,92.93,814.25,92.54,814.25,92Z"/></g><g id="tagline-036f2025-e793-4f4c-8dfc-516e0b9ac427-logo-path"><path class="cls-2" d="M481.75,165.9h0v-1h2v.59c0,6.9,4.72,10.44,14.17,10.44h0a19.61,19.61,0,0,0,8.08-1.58h0c2.95-1.37,4.33-3.34,4.33-6.3h0a6.33,6.33,0,0,0-1.57-4.53h0a11.14,11.14,0,0,0-4.34-2.16h0a55.55,55.55,0,0,0-7.68-1.77h0c-4.53-1-7.48-1.78-9.06-2.56h0c-2.95-1.58-4.53-3.94-4.53-7.09h0c0-6.11,4.53-9.06,13.79-9.06h0c9.65,0,14.57,3.74,14.57,11h-2c-.19-3.75-1.57-6.31-3.94-7.69h0c-2-1.18-4.72-1.77-8.46-1.77h-.2c-7.88,0-12,2.37-12,7.29h0a6.31,6.31,0,0,0,3.34,5.51h0a24.66,24.66,0,0,0,7.49,2.17h0c6.5,1.18,10.63,2.36,12.8,3.74h0a7.71,7.71,0,0,1,3.74,7.09h0c0,3.35-1.77,5.71-5.12,7.48h0a22.25,22.25,0,0,1-9.45,2h0c-4.53,0-8.27-.78-11-2.36h0C483.52,173.38,481.75,170.23,481.75,165.9Zm33.67-1.58h0c0-4.13,1.18-7.48,3.55-9.84,2.36-2.56,5.71-3.75,9.84-3.75h0c4.14,0,7.29,1.19,9.65,3.75a13.74,13.74,0,0,1,3.55,9.84h0c0,4.14-1.19,7.29-3.75,9.85-2.36,2.56-5.71,3.74-9.84,3.74h0c-4.14,0-7.49-1.18-9.85-3.94h0A14.53,14.53,0,0,1,515.42,164.32Zm2,0h0a11.28,11.28,0,0,0,3.15,8.47,11,11,0,0,0,8.27,3.35h0a10.65,10.65,0,0,0,8.27-3.35,11.28,11.28,0,0,0,3.15-8.47h0c0-3.54-1-6.5-3.15-8.66-2-2.17-4.92-3.15-8.47-3.15h0c-3.54,0-6.3,1-8.27,3.15A12.83,12.83,0,0,0,517.39,164.32Zm30.92-8.47h-3.74v-1.77h3.74v-2.16c0-6.5,4.13-9.85,12.6-9.85h0v1.77c-7.29,0-10.83,2.76-10.83,8.08h0v2.16H556v1.77h-5.91v21.67h-2V155.85Zm15.16-1.37h-5.32V152.7h5.32v-7.87h2v7.87h5.32v1.78h-5.32v22.84h-1.77ZM584,177.32l-11.62-26h2.17L584.94,175l6.3-15.56-3.74-8.27h2.36l10.24,23.63,9.45-23.63h2.17l-10.64,26h-2l-6.89-15.36-6.3,15.36h-2Zm29.74-12.8h0a14,14,0,0,1,3.35-9.65h0a12.44,12.44,0,0,1,9.64-3.94h0c5.13,0,8.87,2.17,11,6.3h0v-6.3h2v26.59h-2v-5.91q-3.54,6.49-11.22,6.5h0a12.31,12.31,0,0,1-9.45-3.94h0C614.67,171.61,613.69,168.46,613.69,164.52Zm1.77,0h0a12.6,12.6,0,0,0,2.56,8.27h0a10,10,0,0,0,8.07,3.54h0a10.75,10.75,0,0,0,8.28-3.54h0a12,12,0,0,0,3.15-8.27h0c0-3.74-1-6.5-3-8.67s-4.72-3.15-8.27-3.15h0a10,10,0,0,0-8.07,3.55h0A12.63,12.63,0,0,0,615.46,164.52ZM647,177.32h-2v-26h2V157a9.14,9.14,0,0,1,2.76-3.55h0c2.16-2,5.12-2.76,8.66-2.76h0v1.78c-4.14,0-7.09,1.57-9.06,4.53h0a18.72,18.72,0,0,0-2.36,9.84h0v10.44Zm13.39-12.8h0a14.08,14.08,0,0,1,3.54-9.85c2.37-2.56,5.52-3.74,9.46-3.74h0a13.47,13.47,0,0,1,9.45,3.35c2.36,2.16,3.54,5.32,3.54,9.25h0v1.58H662.13c.2,7.48,3.94,11.22,11,11.22h0a13,13,0,0,0,6.3-1.57,9.87,9.87,0,0,0,3.94-4.92h2a11.17,11.17,0,0,1-4.92,6.49h0a15.73,15.73,0,0,1-7.68,1.78h0c-4.34,0-7.49-1.18-9.65-3.75h0A16.6,16.6,0,0,1,660.36,164.52Zm1.77-1.38h22.06a10.09,10.09,0,0,0-3-7.68,10.54,10.54,0,0,0-7.87-3h0a10.54,10.54,0,0,0-7.88,3A12.59,12.59,0,0,0,662.13,163.14Zm45.49,2.76h0v-1h2v.59c0,6.9,4.73,10.44,14.18,10.44h0a19.52,19.52,0,0,0,8.07-1.58h0c3-1.37,4.34-3.34,4.34-6.3h0a6.29,6.29,0,0,0-1.58-4.53h0a11.08,11.08,0,0,0-4.33-2.16h0a56.36,56.36,0,0,0-7.68-1.77h0c-4.53-1-7.48-1.78-9.06-2.56h0c-2.95-1.58-4.53-3.94-4.53-7.09h0c0-6.11,4.53-9.06,13.79-9.06h0c9.65,0,14.57,3.74,14.77,11h-2c-.2-3.75-1.58-6.31-3.94-7.69h0c-2-1.18-4.73-1.77-8.47-1.77H723c-7.87,0-12,2.37-12,7.29h0a6.3,6.3,0,0,0,3.35,5.51h0a24.67,24.67,0,0,0,7.48,2.17h0c6.5,1.18,10.64,2.36,12.8,3.74h0a7.71,7.71,0,0,1,3.74,7.09h0c0,3.35-1.77,5.71-5.12,7.48h0a22.25,22.25,0,0,1-9.45,2h0c-4.53,0-8.27-.78-11-2.36h0C709.2,173.38,707.62,170.23,707.62,165.9Zm33.68-1.58h0c0-4.13,1.18-7.48,3.74-9.84,2.36-2.56,5.71-3.75,9.65-3.75h0c4.13,0,7.28,1.19,9.65,3.75a13.73,13.73,0,0,1,3.54,9.84h0c0,4.14-1.18,7.29-3.74,9.85-2.36,2.56-5.71,3.74-9.85,3.74h0c-4.13,0-7.48-1.18-9.84-3.94h0A14.53,14.53,0,0,1,741.3,164.32Zm2,0h0a11.28,11.28,0,0,0,3.15,8.47,10.65,10.65,0,0,0,8.27,3.35h0a11.42,11.42,0,0,0,8.47-3.35,12.1,12.1,0,0,0,3.15-8.47h0c0-3.54-1-6.5-3.15-8.66-2-2.17-4.93-3.15-8.47-3.15h0c-3.55,0-6.3,1-8.27,3.15A12,12,0,0,0,743.27,164.32Zm30.52,13h-2v-36h2Zm5.32-8.86h0V151.52h2v16.94a7.39,7.39,0,0,0,2.36,5.9,9.28,9.28,0,0,0,6.3,2h0c3.35,0,5.91-1,7.48-3.15h0a11.53,11.53,0,0,0,2.37-7.68h0v-14h2v26h-2v-4.73q-2.65,5.31-10.05,5.32h0a11.9,11.9,0,0,1-7.68-2.37A9.78,9.78,0,0,1,779.11,168.46Zm31.11-14H805.1V152.7h5.32v-7.87h2v7.87h5.31v1.78h-5.31v22.84h-2Zm12.6,22.84h-2V151.13h2Zm-2-32.1h0v-3.55c.19-.59.59-.78.78-.78h0c.4,0,.59.19,1,.78h0v3.75a1.84,1.84,0,0,1-1,.59h0C821.45,146,821.05,145.81,820.86,145.22Zm5.71,19.1h0c0-4.13,1.18-7.48,3.74-9.84,2.36-2.56,5.71-3.75,9.65-3.75h0c4.13,0,7.28,1.19,9.65,3.75a13.73,13.73,0,0,1,3.54,9.84h0c0,4.14-1.18,7.29-3.74,9.85-2.36,2.56-5.71,3.74-9.85,3.74h0c-4.13,0-7.48-1.18-9.84-3.94h0A14.53,14.53,0,0,1,826.57,164.32Zm2,0h0a11.28,11.28,0,0,0,3.15,8.47,11,11,0,0,0,8.27,3.35h0a10.67,10.67,0,0,0,8.27-3.35,11.31,11.31,0,0,0,3.15-8.47h0c0-3.54-1-6.5-3.15-8.66-2-2.17-4.92-3.15-8.47-3.15h0c-3.54,0-6.3,1-8.27,3.15A12.83,12.83,0,0,0,828.54,164.32Zm30.52,13h-2v-26h2v4.73q2.66-5.31,10-5.32h0a12.51,12.51,0,0,1,7.49,2.17h0a7.9,7.9,0,0,1,3.15,6.7h0v17.52h-2V160a7,7,0,0,0-2.37-5.71,9.28,9.28,0,0,0-6.3-2h0a9.75,9.75,0,0,0-7.28,2.76,10.56,10.56,0,0,0-2.76,7.48h0v14.77Zm25-9.26h2q0,8.28,9.45,8.27h0a12,12,0,0,0,5.52-1.18h0a4.42,4.42,0,0,0,2.75-4.33h0c0-2.56-2-4.14-5.71-4.92h0c-.2,0-2-.4-5.32-1h0c-5.12-.79-7.68-2.95-7.68-6.69h0a6.35,6.35,0,0,1,3-5.52h0a11.46,11.46,0,0,1,6.5-1.77h0c7.28,0,11,2.95,11,8.86h-2.16c0-4.72-3-7.09-8.67-7.09h0a10.44,10.44,0,0,0-5.12,1.18h0a4.92,4.92,0,0,0-2.56,4.34h0c0,2.36,1.78,3.94,5.52,4.72h0c1,.2,2.75.59,5.71,1h0c4.92.79,7.48,3.15,7.48,6.89h0a6.69,6.69,0,0,1-3.35,5.91h0a14.3,14.3,0,0,1-6.89,1.57h0C888,178.11,884.07,174.76,884.07,168.06Z"/></g></g></g></svg>