<?xml version="1.0" encoding="utf-8"?>
<!-- Generator: Adobe Illustrator 23.0.3, SVG Export Plug-In . SVG Version: 6.00 Build 0)  -->
<svg version="1.1" id="Line" xmlns="http://www.w3.org/2000/svg" xmlns:xlink="http://www.w3.org/1999/xlink" x="0px" y="0px"
	 viewBox="0 0 512 512" style="enable-background:new 0 0 512 512;" xml:space="preserve">
<style type="text/css">
	.st0{fill:url(#SVGID_1_);}
	.st1{opacity:0.5;}
	.st2{fill:#C7C7C7;}
	.st3{fill:url(#SVGID_2_);}
	.st4{fill:url(#SVGID_3_);}
	.st5{fill:url(#SVGID_4_);}
</style>
<linearGradient id="SVGID_1_" gradientUnits="userSpaceOnUse" x1="-637.2729" y1="1037.0258" x2="-637.2729" y2="978.9406" gradientTransform="matrix(-1.0129 0 0 -4.3887 -639.1771 5630.8867)">
	<stop  offset="0" style="stop-color:#42E695"/>
	<stop  offset="1" style="stop-color:#3BB2B8"/>
</linearGradient>
<polygon class="st0" points="-20.2,1079.7 32.8,1079.7 32.8,1334.6 -20.2,1334.6 "/>
<g class="st1">
	<path class="st2" d="M425.4,300.1c-9.8-24.2-33.3-40-59.4-40.1h-0.6c-17.7-30.6-56.8-41.1-87.4-23.4c-19.8,11.4-32,32.5-32,55.4
		c-17.8,0-34.1,9.8-42.4,25.4c-4.4-1-9-1.5-13.5-1.4c-32.4,0.1-59.7,24.2-63.6,56.4c-0.8,6.6-0.5,13.3,0.7,19.8
		c-33,12.6-49.5,49.6-36.9,82.6c5.1,13.4,14.6,24.7,26.9,32c1.2,0.7,2.7,1.1,4.1,1.1H446c13.3,0,24-10.7,24-24V348
		C470,322.8,450.5,301.9,425.4,300.1z M149.1,435.8c-8.5,0.7-15,7.7-15.1,16.2c0,3.9,1.4,7.7,4,10.6c3,3.3,2.7,8.3-0.6,11.3
		c-3.3,3-8.3,2.7-11.3-0.6c-5.3-5.9-8.2-13.5-8.1-21.4c0-15.9,11.7-29.5,27.4-31.8c4.3-1,8.6,1.7,9.6,6.1
		C156,430.5,153.4,434.7,149.1,435.8L149.1,435.8z M438,452c0,13.3-10.7,24-24,24h-32c-4.4,0-8-3.6-8-8s3.6-8,8-8h32
		c4.4,0,8-3.6,8-8v-48c0-4.4,3.6-8,8-8s8,3.6,8,8V452z"/>
	<path class="st2" d="M494,140c0-17.7-14.3-32-32-32h-64c-22.1,0-40,17.9-40,40s17.9,40,40,40c2.9,0,5.8-0.3,8.6-1
		c3.9,21.8,24.6,36.3,46.4,32.4c19.1-3.4,33-20,33-39.4c0-5.4-1.1-10.8-3.2-15.7C489.9,158.2,494,149.3,494,140z"/>
	<circle class="st2" cx="145" cy="244" r="48"/>
</g>
<linearGradient id="SVGID_2_" gradientUnits="userSpaceOnUse" x1="7.9992" y1="195.5121" x2="379.0189" y2="195.5121">
	<stop  offset="0" style="stop-color:#42E695"/>
	<stop  offset="1" style="stop-color:#3BB2B8"/>
</linearGradient>
<path class="st3" d="M328.3,212.3l-1-1l43.9-43.9c10.5-10.5,10.5-27.5,0-38c-3.5-3.5-7.9-6-12.7-7.1L199.8,84
	C150.5,36.4,84.6,9.8,16,10c-4.4,0-8,3.6-8,8C7.8,86.6,34.4,152.5,82,201.8l38.3,158.7c3.5,14.4,18,23.3,32.4,19.8
	c4.8-1.2,9.2-3.6,12.7-7.1l43.9-43.9l1,1c10.5,10.5,27.5,10.5,38,0l80-80C338.7,239.8,338.7,222.8,328.3,212.3L328.3,212.3z
	 M359.8,156.1L315.9,200l-94.2-94.2l133,32.1c5.8,1.4,9.4,7.3,8,13.1C362.2,152.9,361.2,154.7,359.8,156.1L359.8,156.1z
	 M154.1,361.8c-4.2,4.2-11.1,4.2-15.4,0c-1.4-1.4-2.4-3.2-2.9-5.1l-32.1-133l94.2,94.2L154.1,361.8z M316.9,239l-80,80
	c-4.2,4.2-11.1,4.2-15.3,0L97.1,194.4C52.1,149.7,26,89.5,24.1,26.1c63.4,1.9,123.6,28,168.3,72.9l124.5,124.5
	C321.2,227.8,321.2,234.7,316.9,239z"/>
<linearGradient id="SVGID_3_" gradientUnits="userSpaceOnUse" x1="86.364" y1="122.6526" x2="158.924" y2="122.6526">
	<stop  offset="0" style="stop-color:#42E695"/>
	<stop  offset="1" style="stop-color:#3BB2B8"/>
</linearGradient>
<path class="st4" d="M97,97c-14.2,14.2-14.2,37.1,0,51.3s37.1,14.2,51.3,0s14.2-37.1,0-51.3c0,0,0,0,0,0
	C134.1,82.8,111.2,82.8,97,97z M137,137c-7.9,7.9-20.8,7.9-28.7,0c-7.9-7.9-7.9-20.8,0-28.7c7.9-7.9,20.7-7.9,28.7,0
	C144.9,116.2,144.9,129.1,137,137L137,137z"/>
<linearGradient id="SVGID_4_" gradientUnits="userSpaceOnUse" x1="263.2409" y1="335.61" x2="407.9965" y2="335.61">
	<stop  offset="0" style="stop-color:#42E695"/>
	<stop  offset="1" style="stop-color:#3BB2B8"/>
</linearGradient>
<path class="st5" d="M373.9,273.9c-7.3-11-22.2-14-33.3-6.7c-1.3,0.9-2.6,1.9-3.7,3l-66.7,66.7c-9.4,9.4-9.4,24.6,0,33.9
	c1.1,1.1,2.4,2.1,3.7,3c36,23.7,83.7,43.2,124.5,29.6c2.4-0.8,4.3-2.7,5-5C418.8,352.6,391.5,300.7,373.9,273.9z M389.5,389.5
	c-38.6,10.4-83.2-13.5-106.8-29c-3.6-2.4-4.6-7.4-2.2-11c0.3-0.5,0.6-0.9,1-1.3c6.8-6.8-24.7,24.7,66.7-66.7
	c3.1-3.1,8.1-3.2,11.2-0.1c0.4,0.4,0.7,0.8,1,1.2C376,306.3,399.9,350.9,389.5,389.5z"/>
</svg>
