<?xml version="1.0" encoding="utf-8"?>
<!-- Generator: Adobe Illustrator 23.0.3, SVG Export Plug-In . SVG Version: 6.00 Build 0)  -->
<svg version="1.1" id="Line" xmlns="http://www.w3.org/2000/svg" xmlns:xlink="http://www.w3.org/1999/xlink" x="0px" y="0px"
	 viewBox="0 0 512 512" style="enable-background:new 0 0 512 512;" xml:space="preserve">
<style type="text/css">
	.st0{opacity:0.5;fill:#C7C7C7;}
	.st1{fill:url(#SVGID_1_);}
	.st2{fill:url(#SVGID_2_);}
	.st3{fill:url(#SVGID_3_);}
	.st4{fill:url(#SVGID_4_);}
</style>
<path class="st0" d="M480,432h-8v-16c0-13.3-10.7-24-24-24h-5.5c-3-24-16.8-98.5-71.3-122.4c12.9-4.9,37-7.6,77.1,9.6
	c20.8,10.1,38.3,3.8,44.7-7.6c7.1-12.7,3.4-33.6-28.6-54.3c-26.9-16.5-48.6-40.2-62.9-68.3c-1.2-3-4.2-4.9-7.4-4.9h-25v-32
	c0-4.4-3.6-8-8-8c-0.8,0-1.5,0.1-2.3,0.3c-4.2,1.3-104,31.8-129.2,107.1c-27.4,81.9,47,137.7,56.5,180.5H272c-13.3,0-24,10.7-24,24
	v16h-8c-13.3,0-24,10.7-24,24v24c0,13.3,10.7,24,24,24h240c13.3,0,24-10.7,24-24v-24C504,442.7,493.3,432,480,432L480,432z M264,416
	c0-4.4,3.6-8,8-8h176c4.4,0,8,3.6,8,8v16H264V416z"/>
<g>
	<linearGradient id="SVGID_1_" gradientUnits="userSpaceOnUse" x1="8" y1="208" x2="408" y2="208">
		<stop  offset="0" style="stop-color:#42E695"/>
		<stop  offset="1" style="stop-color:#3BB2B8"/>
	</linearGradient>
	<path class="st1" d="M384,8H32C18.7,8,8,18.7,8,32v32c0,13.3,10.7,24,24,24h8v232c0,13.3,10.7,24,24,24h136v48h-8c-4.4,0-8,3.6-8,8
		s3.6,8,8,8h32c4.4,0,8-3.6,8-8s-3.6-8-8-8h-8v-48h136c13.3,0,24-10.7,24-24V88h8c13.3,0,24-10.7,24-24V32C408,18.7,397.3,8,384,8z
		 M360,320c0,4.4-3.6,8-8,8H64c-4.4,0-8-3.6-8-8V88h304V320z M392,64c0,4.4-3.6,8-8,8H32c-4.4,0-8-3.6-8-8V32c0-4.4,3.6-8,8-8h352
		c4.4,0,8,3.6,8,8V64z"/>
	<linearGradient id="SVGID_2_" gradientUnits="userSpaceOnUse" x1="80" y1="272" x2="144" y2="272">
		<stop  offset="0" style="stop-color:#42E695"/>
		<stop  offset="1" style="stop-color:#3BB2B8"/>
	</linearGradient>
	<path class="st2" d="M112,304c17.7,0,32-14.3,32-32s-14.3-32-32-32s-32,14.3-32,32S94.3,304,112,304z M112,256c8.8,0,16,7.2,16,16
		s-7.2,16-16,16s-16-7.2-16-16S103.2,256,112,256z"/>
	<linearGradient id="SVGID_3_" gradientUnits="userSpaceOnUse" x1="168" y1="195.9968" x2="335.9018" y2="195.9968">
		<stop  offset="0" style="stop-color:#42E695"/>
		<stop  offset="1" style="stop-color:#3BB2B8"/>
	</linearGradient>
	<path class="st3" d="M176,280h112c13.3,0,24-10.7,24-24V139.3l10.3,10.3c3.2,3.1,8.2,3,11.3-0.2c3-3.1,3-8,0-11.1l-24-24
		c-3.1-3.1-8.2-3.1-11.3,0c0,0,0,0,0,0l-24,24c-3.1,3.2-3,8.2,0.2,11.3c3.1,3,8,3,11.1,0l10.4-10.3V256c0,4.4-3.6,8-8,8H176
		c-4.4,0-8,3.6-8,8S171.6,280,176,280z"/>
	<linearGradient id="SVGID_4_" gradientUnits="userSpaceOnUse" x1="80.0017" y1="140.0483" x2="135.9017" y2="140.0483">
		<stop  offset="0" style="stop-color:#42E695"/>
		<stop  offset="1" style="stop-color:#3BB2B8"/>
	</linearGradient>
	<path class="st4" d="M82.3,165.7c3.1,3.1,8.2,3.1,11.3,0l14.3-14.3l14.3,14.3c3.2,3.1,8.2,3,11.3-0.2c3-3.1,3-8,0-11.1L119.3,140
		l14.3-14.3c3.1-3.2,3-8.2-0.2-11.3c-3.1-3-8-3-11.1,0L108,128.7l-14.3-14.3c-3.2-3.1-8.2-3-11.3,0.2c-3,3.1-3,8,0,11.1L96.7,140
		l-14.3,14.3C79.2,157.5,79.2,162.5,82.3,165.7L82.3,165.7z"/>
</g>
</svg>
