<?xml version="1.0" encoding="utf-8"?>
<!-- Generator: Adobe Illustrator 23.0.3, SVG Export Plug-In . SVG Version: 6.00 Build 0)  -->
<svg version="1.1" id="Line" xmlns="http://www.w3.org/2000/svg" xmlns:xlink="http://www.w3.org/1999/xlink" x="0px" y="0px"
	 viewBox="0 0 512 512" style="enable-background:new 0 0 512 512;" xml:space="preserve">
<style type="text/css">
	.st0{opacity:0.5;fill:#C7C7C7;}
	.st1{fill:url(#SVGID_1_);}
	.st2{fill:url(#SVGID_2_);}
	.st3{fill:url(#SVGID_3_);}
</style>
<path class="st0" d="M503,219.9L431,91.8c-2.5-3.8-7.6-4.9-11.5-2.5c-1,0.6-1.8,1.5-2.5,2.5l-72,128.1c-2.2,3.8-0.8,8.7,3,10.9
	c1.2,0.7,2.6,1,3.9,1h32V464c0,13.3,10.7,24,24,24l0,0h32c13.3,0,24-10.7,24-24l0,0V231.8h32c4.4,0,8-3.6,8-8
	C504,222.4,503.6,221.1,503,219.9z"/>
<path class="st0" d="M247,91.8c-2.5-3.9-7.6-4.9-11.5-2.4c-1,0.6-1.8,1.5-2.4,2.4l-72,128.1c-2.2,3.8-0.8,8.7,3,10.9
	c1.2,0.7,2.6,1,3.9,1h32V464c0,13.3,10.7,24,24,24l0,0h32c13.3,0,24-10.7,24-24l0,0V231.8h32c4.4,0,8-3.6,8-8c0-1.4-0.4-2.7-1-3.9
	L247,91.8z"/>
<g>
	<linearGradient id="SVGID_1_" gradientUnits="userSpaceOnUse" x1="8" y1="368" x2="128" y2="368">
		<stop  offset="0" style="stop-color:#42E695"/>
		<stop  offset="1" style="stop-color:#3BB2B8"/>
	</linearGradient>
	<path class="st1" d="M104,312H32c-13.3,0-24,10.7-24,24v64c0,13.3,10.7,24,24,24h72c13.3,0,24-10.7,24-24v-64
		C128,322.7,117.3,312,104,312z M112,400c0,4.4-3.6,8-8,8H32c-4.4,0-8-3.6-8-8v-64c0-4.4,3.6-8,8-8h72c4.4,0,8,3.6,8,8V400z"/>
	<linearGradient id="SVGID_2_" gradientUnits="userSpaceOnUse" x1="144" y1="320" x2="264" y2="320">
		<stop  offset="0" style="stop-color:#42E695"/>
		<stop  offset="1" style="stop-color:#3BB2B8"/>
	</linearGradient>
	<path class="st2" d="M240,216h-72c-13.3,0-24,10.7-24,24v64c0,5.9,2.2,11.6,6.2,16c-4,4.4-6.2,10.1-6.2,16v64c0,13.3,10.7,24,24,24
		h72c13.3,0,24-10.7,24-24v-64c0-5.9-2.2-11.6-6.2-16c4-4.4,6.2-10.1,6.2-16v-64C264,226.7,253.3,216,240,216z M160,240
		c0-4.4,3.6-8,8-8h72c4.4,0,8,3.6,8,8v64c0,4.4-3.6,8-8,8h-72c-4.4,0-8-3.6-8-8V240z M248,400c0,4.4-3.6,8-8,8h-72c-4.4,0-8-3.6-8-8
		v-64c0-4.4,3.6-8,8-8h72c4.4,0,8,3.6,8,8V400z"/>
	<linearGradient id="SVGID_3_" gradientUnits="userSpaceOnUse" x1="264" y1="224" x2="408" y2="224">
		<stop  offset="0" style="stop-color:#42E695"/>
		<stop  offset="1" style="stop-color:#3BB2B8"/>
	</linearGradient>
	<path class="st3" d="M368,88c22.1,0,40-17.9,40-40V32c0-4.4-3.6-8-8-8h-32c-12.6,0-24.5,6.1-32,16.2C328.5,30.1,316.6,24,304,24
		h-32c-4.4,0-8,3.6-8,8v16c0,22.1,17.9,40,40,40h24v32h-24c-13.3,0-24,10.7-24,24v64c0,5.9,2.2,11.6,6.2,16c-4,4.4-6.2,10.1-6.2,16
		v64c0,5.9,2.2,11.6,6.2,16c-4,4.4-6.2,10.1-6.2,16v64c0,13.3,10.7,24,24,24h72c13.3,0,24-10.7,24-24v-64c0-5.9-2.2-11.6-6.2-16
		c4-4.4,6.2-10.1,6.2-16v-64c0-5.9-2.2-11.6-6.2-16c4-4.4,6.2-10.1,6.2-16v-64c0-13.3-10.7-24-24-24h-32V88H368z M384,240v64
		c0,4.4-3.6,8-8,8h-72c-4.4,0-8-3.6-8-8v-64c0-4.4,3.6-8,8-8h72C380.4,232,384,235.6,384,240z M384,400c0,4.4-3.6,8-8,8h-72
		c-4.4,0-8-3.6-8-8v-64c0-4.4,3.6-8,8-8h72c4.4,0,8,3.6,8,8V400z M384,144v64c0,4.4-3.6,8-8,8h-72c-4.4,0-8-3.6-8-8v-64
		c0-4.4,3.6-8,8-8h72C380.4,136,384,139.6,384,144z M368,40h24v8c0,13.3-10.7,24-24,24h-24v-8C344,50.7,354.7,40,368,40z M280,48v-8
		h24c13.3,0,24,10.7,24,24v8h-24C290.7,72,280,61.3,280,48z"/>
</g>
</svg>
